{
  "accessors": [
    {
      "bufferView": 2,
      "componentType": 5126,
      "count": 10199,
      "max": [
        10.0,
        10.0,
        9.999999046325684
      ],
      "min": [
        -9.999996185302734,
        -10.0,
        -9.999995231628418
      ],
      "type": "VEC3"
    },
    {
      "bufferView": 2,
      "byteOffset": 122388,
      "componentType": 5126,
      "count": 10199,
      "max": [
        1.0,
        1.0,
        1.0
      ],
      "min": [
        -1.0,
        -1.0,
        -1.0
      ],
      "type": "VEC3"
    },
    {
      "bufferView": 1,
      "componentType": 5126,
      "count": 10199,
      "max": [
        0.9999993443489075,
        1.0
      ],
      "min": [
        -0.0,
        0.0
      ],
      "type": "VEC2"
    },
    {
      "bufferView": 0,
      "componentType": 5125,
      "count": 59400,
      "type": "SCALAR"
    },
    {
      "bufferView": 2,
      "byteOffset": 244776,
      "componentType": 5126,
      "count": 1200,
      "max": [
        -3.759725570678711,
        8.280747405321493e-15,
        0.6516180038452148
      ],
      "min": [
        -8.97266960144043,
        -8.280747405321493e-15,
        -0.6516180038452148
      ],
      "type": "VEC3"
    },
    {
      "bufferView": 2,
      "byteOffset": 259176,
      "componentType": 5126,
      "count": 1200,
      "max": [
        1.1404196644914776e-14,
        1.0,
        1.9165360487863325e-14
      ],
      "min": [
        -1.1404196644914776e-14,
        1.0,
        -7.146557109115326e-13
      ],
      "type": "VEC3"
    },
    {
      "bufferView": 1,
      "byteOffset": 81592,
      "componentType": 5126,
      "count": 1200,
      "max": [
        1.0,
        1.0
      ],
      "min": [
        -0.0,
        0.0
      ],
      "type": "VEC2"
    },
    {
      "bufferView": 0,
      "byteOffset": 237600,
      "componentType": 5125,
      "count": 1200,
      "type": "SCALAR"
    }
  ],
  "asset": {
    "extras": {
      "author": "SuperGlitch (https://sketchfab.com/USERGG)",
      "license": "CC-BY-4.0 (http://creativecommons.org/licenses/by/4.0/)",
      "source": "https://sketchfab.com/3d-models/saturnplanet-free-8416f8788cf84456b8d39148e7241860",
      "title": "Saturn(Planet) Free!!!"
    },
    "generator": "Sketchfab-16.21.0",
    "version": "2.0"
  },
  "bufferViews": [
    {
      "buffer": 0,
      "byteLength": 242400,
      "name": "floatBufferViews",
      "target": 34963
    },
    {
      "buffer": 0,
      "byteLength": 91192,
      "byteOffset": 242400,
      "byteStride": 8,
      "name": "floatBufferViews",
      "target": 34962
    },
    {
      "buffer": 0,
      "byteLength": 273576,
      "byteOffset": 333592,
      "byteStride": 12,
      "name": "floatBufferViews",
      "target": 34962
    }
  ],
  "buffers": [
    {
      "byteLength": 607168,
      "uri": "scene.bin"
    }
  ],
  "images": [
    {
      "uri": "textures/material_baseColor.png"
    },
    {
      "uri": "textures/material_1_baseColor.png"
    }
  ],
  "materials": [
    {
      "doubleSided": true,
      "name": "material",
      "pbrMetallicRoughness": {
        "baseColorTexture": {
          "index": 0
        }
      }
    },
    {
      "alphaMode": "MASK",
      "doubleSided": true,
      "name": "material_1",
      "pbrMetallicRoughness": {
        "baseColorTexture": {
          "index": 1
        }
      }
    }
  ],
  "meshes": [
    {
      "name": "Object_0",
      "primitives": [
        {
          "attributes": {
            "NORMAL": 1,
            "POSITION": 0,
            "TEXCOORD_0": 2
          },
          "indices": 3,
          "material": 0,
          "mode": 4
        }
      ]
    },
    {
      "name": "Object_1",
      "primitives": [
        {
          "attributes": {
            "NORMAL": 5,
            "POSITION": 4,
            "TEXCOORD_0": 6
          },
          "indices": 7,
          "material": 1,
          "mode": 4
        }
      ]
    }
  ],
  "nodes": [
    {
      "children": [
        1
      ],
      "matrix": [
        1.0,
        0.0,
        0.0,
        0.0,
        0.0,
        2.220446049250313e-16,
        -1.0,
        0.0,
        0.0,
        1.0,
        2.220446049250313e-16,
        0.0,
        0.0,
        0.0,
        0.0,
        1.0
      ],
      "name": "Sketchfab_model"
    },
    {
      "children": [
        2
      ],
      "name": "root"
    },
    {
      "children": [
        3
      ],
      "matrix": [
        1.0,
        0.0,
        0.0,
        0.0,
        0.0,
        2.220446049250313e-16,
        1.0,
        0.0,
        0.0,
        -1.0,
        2.220446049250313e-16,
        0.0,
        0.0,
        0.0,
        0.0,
        1.0
      ],
      "name": "GLTF_SceneRootNode"
    },
    {
      "children": [
        4
      ],
      "matrix": [
        -22.46055793762207,
        -0.0,
        -0.0,
        -0.0,
        -0.0,
        -22.46055793762207,
        -0.0,
        -0.0,
        -0.0,
        -0.0,
        -22.46055793762207,
        -0.0,
        0.0,
        0.0,
        5.759335517883301,
        1.0
      ],
      "name": "root_3"
    },
    {
      "children": [
        5,
        7
      ],
      "matrix": [
        0.0010000000474974513,
        0.0,
        0.0,
        0.0,
        0.0,
        0.0010000000474974513,
        0.0,
        0.0,
        0.0,
        0.0,
        0.0010000000474974513,
        0.0,
        0.0,
        0.0,
        0.0,
        1.0
      ],
      "name": "node_id34_2"
    },
    {
      "children": [
        6
      ],
      "matrix": [
        9.559020042419434,
        0.0,
        0.0,
        0.0,
        0.0,
        9.559020042419434,
        0.0,
        0.0,
        0.0,
        0.0,
        9.559020042419434,
        0.0,
        0.00017854610632639378,
        -2.110006425937172e-05,
        256.0,
        1.0
      ],
      "name": "node_id30_0"
    },
    {
      "mesh": 0,
      "name": "Object_6"
    },
    {
      "children": [
        8
      ],
      "matrix": [
        98.21705627441406,
        0.0,
        0.0,
        0.0,
        0.0,
        98.21705627441406,
        0.0,
        0.0,
        0.0,
        0.0,
        392.86822509765625,
        0.0,
        625.2694091796875,
        -2.110006425937172e-05,
        256.0,
        1.0
      ],
      "name": "node_id32_1"
    },
    {
      "mesh": 1,
      "name": "Object_8"
    }
  ],
  "samplers": [
    {
      "magFilter": 9729,
      "minFilter": 9987,
      "wrapS": 10497,
      "wrapT": 10497
    }
  ],
  "scene": 0,
  "scenes": [
    {
      "name": "Sketchfab_Scene",
      "nodes": [
        0
      ]
    }
  ],
  "textures": [
    {
      "sampler": 0,
      "source": 0
    },
    {
      "sampler": 0,
      "source": 1
    }
  ]
}
